<svg width="28" height="29" viewBox="0 0 28 29" fill="none" xmlns="http://www.w3.org/2000/svg">
<g id="cut-1">
<path id="Union" d="M24.9832 4.97951L17.5 12.4628L15.8501 10.8128L23.3333 3.32959L24.9832 4.97951ZM4.66665 3.32959L18.6291 17.292C20.4186 16.2351 22.7622 16.4754 24.2998 18.013C26.1223 19.8355 26.1223 22.7902 24.2998 24.6127C22.4774 26.4351 19.5226 26.4351 17.7001 24.6127C16.1626 23.0751 15.9222 20.7315 16.9792 18.9419L14 15.9628L11.0208 18.9419C12.0777 20.7315 11.8374 23.0751 10.2998 24.6127C8.47736 26.4351 5.52259 26.4351 3.70015 24.6127C1.8777 22.7902 1.8777 19.8355 3.70015 18.013C5.23774 16.4754 7.58134 16.2351 9.37089 17.292L12.3501 14.3128L3.01673 4.97951L4.66665 3.32959ZM8.6499 19.6629C7.73867 18.7517 6.26129 18.7517 5.35006 19.6629C4.43884 20.5741 4.43884 22.0515 5.35006 22.9628C6.26129 23.874 7.73867 23.874 8.6499 22.9628C9.56112 22.0515 9.56112 20.5741 8.6499 19.6629ZM22.6499 19.6629C21.7387 18.7517 20.2613 18.7517 19.3501 19.6629C18.4388 20.5741 18.4388 22.0515 19.3501 22.9628C20.2613 23.874 21.7387 23.874 22.6499 22.9628C23.5611 22.0515 23.5611 20.5741 22.6499 19.6629Z" fill="white"/>
</g>
</svg>
