<svg width="28" height="29" viewBox="0 0 28 29" fill="none" xmlns="http://www.w3.org/2000/svg">
<g id="history-setting">
<path id="Union" d="M13.9999 4.97982C12.2984 4.97982 10.7001 5.40741 9.30336 6.16006C7.78156 6.98008 6.49841 8.18632 5.58525 9.64648H9.91661V11.9798H1.74994V3.81315H4.08327V7.70331C5.16338 6.21659 6.56942 4.98272 8.19651 4.10596C9.92501 3.17456 11.9025 2.64648 13.9999 2.64648C20.7654 2.64648 26.2499 8.131 26.2499 14.8965V16.0632H23.9166V14.8965C23.9166 9.41966 19.4768 4.97982 13.9999 4.97982ZM15.1666 7.89648V14.4132L17.1082 16.3548L15.4583 18.0047L12.8333 15.3797V7.89648H15.1666ZM4.01623 14.7814L4.13761 15.9418C4.65909 20.9267 8.87641 24.8132 13.9999 24.8132H15.1666V27.1465H13.9999C7.66922 27.1465 2.46142 22.3452 1.81694 16.1845L1.69556 15.0242L4.01623 14.7814ZM22.7499 17.2352V18.5657C23.3718 18.7508 23.9316 19.08 24.3905 19.5146L25.5442 18.8485L26.7109 20.8693L25.5569 21.5355C25.6286 21.8387 25.6666 22.1549 25.6666 22.4799C25.6666 22.8067 25.6282 23.1245 25.5557 23.429L26.7109 24.096L25.5443 26.1167L24.387 25.4485C23.9287 25.8815 23.3702 26.2096 22.7499 26.3942V27.7299H20.4166V26.3942C19.7963 26.2095 19.2378 25.8815 18.7795 25.4485L17.6222 26.1166L16.4555 24.0959L17.6108 23.4289C17.5383 23.1244 17.4999 22.8066 17.4999 22.4799C17.4999 22.1549 17.5379 21.8387 17.6097 21.5357L16.4556 20.8694L17.6223 18.8486L18.7759 19.5147C19.2349 19.08 19.7947 18.7508 20.4166 18.5657V17.2352H22.7499ZM21.5833 20.7299C20.6168 20.7299 19.8333 21.5134 19.8333 22.4799C19.8333 23.4464 20.6168 24.2299 21.5833 24.2299C22.5498 24.2299 23.3333 23.4464 23.3333 22.4799C23.3333 21.5134 22.5498 20.7299 21.5833 20.7299Z" fill="white"/>
</g>
</svg>
